# xmcd
#
# Track frame offsets:
#	150
#	24714
#	52245
#	69937
#	94228
#	115659
#	135752
#	155301
#	177400
#	197787
#	224258
#	238390
#	257013
#	275813
#
# Disc length: 3884 seconds
#
# Revision: 1
# Processed by: cddbd v1.5.2PL0 Copyright (c) Steve Scherf et al.
# Submitted via: EZCDAudioConverter 8.0.2.1
#
DISCID=cf0f2a0e
DTITLE=梁静茹 - 爱的大游行 Live全纪录 CD A......
DYEAR=2005
DGENRE=World Pop
TTITLE0=Opening＋燕尾蝶
TTITLE1=不想睡
TTITLE2=听不到
TTITLE3=Talking＋无条件为你
TTITLE4=爱你不是两三天
TTITLE5=Fly Away
TTITLE6=Talking＋为你好
TTITLE7=我喜欢
TTITLE8=分手快乐
TTITLE9=最想环游世界+Talking
TTITLE10=茉莉花
TTITLE11=南海姑娘+Talking
TTITLE12=Shanghai Memories Of 1945
TTITLE13=宁夏
EXTD=
EXTT0=
EXTT1=
EXTT2=
EXTT3=
EXTT4=
EXTT5=
EXTT6=
EXTT7=
EXTT8=
EXTT9=
EXTT10=
EXTT11=
EXTT12=
EXTT13=
PLAYORDER=
